<svg xmlns="http://www.w3.org/2000/svg" xmlns:xlink="http://www.w3.org/1999/xlink" width="500" zoomAndPan="magnify" viewBox="0 0 375 374.999991" height="500" preserveAspectRatio="xMidYMid meet" version="1.0"><defs><g/><clipPath id="b6bf0dc5e8"><path d="M 118.726562 68.042969 L 255.976562 68.042969 L 255.976562 221.792969 L 118.726562 221.792969 Z M 118.726562 68.042969 " clip-rule="nonzero"/></clipPath></defs><g clip-path="url(#b6bf0dc5e8)"><path fill="#f9fafb" d="M 178.355469 76.644531 C 178.96875 76.5625 179.429688 76.039062 179.429688 75.417969 L 179.429688 69.097656 C 179.429688 68.703125 179.5 68.042969 179.980469 68.042969 C 180.203125 68.042969 180.492188 68.136719 180.792969 68.3125 L 203.539062 81.445312 C 204.066406 81.75 204.25 82.058594 204.25 82.234375 C 204.25 82.40625 204.066406 82.71875 203.539062 83.019531 L 180.792969 96.152344 C 180.492188 96.328125 180.203125 96.425781 179.980469 96.425781 C 179.5 96.425781 179.429688 95.761719 179.429688 95.367188 L 179.429688 90.457031 C 179.429688 90.089844 179.269531 89.746094 178.988281 89.507812 C 178.710938 89.273438 178.34375 89.171875 177.984375 89.234375 C 165.042969 91.441406 153.1875 98.199219 144.605469 108.265625 C 135.925781 118.445312 131.144531 131.410156 131.144531 144.769531 C 131.144531 163.066406 140.085938 180.296875 155.0625 190.855469 C 156.417969 191.808594 157.316406 193.230469 157.597656 194.863281 C 157.882812 196.492188 157.511719 198.136719 156.558594 199.488281 C 155.398438 201.132812 153.503906 202.117188 151.488281 202.117188 C 150.207031 202.117188 148.972656 201.726562 147.921875 200.984375 C 129.65625 188.105469 118.75 167.09375 118.75 144.769531 C 118.75 110.460938 144.375 81.171875 178.355469 76.644531 Z M 217.371094 94.679688 C 217.652344 96.308594 218.554688 97.734375 219.90625 98.6875 C 234.882812 109.246094 243.824219 126.472656 243.824219 144.769531 C 243.824219 158.132812 239.046875 171.097656 230.363281 181.273438 C 221.785156 191.339844 209.929688 198.097656 196.988281 200.304688 C 196.628906 200.367188 196.257812 200.265625 195.980469 200.03125 C 195.703125 199.796875 195.542969 199.449219 195.542969 199.085938 L 195.542969 194.171875 C 195.542969 193.777344 195.46875 193.117188 194.988281 193.117188 C 194.769531 193.117188 194.480469 193.210938 194.175781 193.386719 L 171.429688 206.519531 C 170.90625 206.824219 170.71875 207.132812 170.71875 207.308594 C 170.71875 207.480469 170.90625 207.792969 171.429688 208.09375 L 194.175781 221.226562 C 194.480469 221.402344 194.769531 221.5 194.988281 221.5 C 195.175781 221.5 195.257812 221.429688 195.316406 221.359375 C 195.457031 221.179688 195.539062 220.847656 195.539062 220.441406 L 195.539062 214.121094 C 195.539062 213.503906 196 212.976562 196.613281 212.894531 C 230.59375 208.367188 256.21875 179.078125 256.21875 144.769531 C 256.21875 122.449219 245.3125 101.433594 227.046875 88.558594 C 225.996094 87.816406 224.765625 87.425781 223.484375 87.425781 C 221.46875 87.425781 219.570312 88.40625 218.414062 90.050781 C 217.457031 91.40625 217.089844 93.046875 217.371094 94.679688 Z M 188.722656 145.484375 L 188.722656 181.203125 L 219.65625 163.34375 L 219.65625 127.625 Z M 168.238281 142.308594 L 173.984375 145.625 L 173.984375 137.6875 C 173.984375 137.675781 173.988281 137.664062 173.988281 137.648438 C 173.988281 137.621094 173.988281 137.59375 173.992188 137.566406 C 173.996094 137.542969 174 137.515625 174.003906 137.492188 C 174.007812 137.460938 174.011719 137.433594 174.019531 137.40625 C 174.023438 137.378906 174.03125 137.355469 174.039062 137.332031 C 174.046875 137.308594 174.054688 137.285156 174.0625 137.261719 C 174.074219 137.234375 174.085938 137.203125 174.097656 137.175781 C 174.109375 137.152344 174.121094 137.128906 174.132812 137.105469 C 174.140625 137.09375 174.144531 137.082031 174.148438 137.070312 C 174.15625 137.0625 174.164062 137.050781 174.171875 137.042969 C 174.183594 137.019531 174.199219 136.996094 174.214844 136.972656 C 174.234375 136.949219 174.25 136.925781 174.269531 136.902344 C 174.289062 136.882812 174.304688 136.863281 174.320312 136.84375 C 174.335938 136.828125 174.355469 136.808594 174.371094 136.792969 C 174.394531 136.773438 174.417969 136.753906 174.441406 136.734375 C 174.460938 136.71875 174.480469 136.703125 174.5 136.6875 C 174.523438 136.671875 174.546875 136.65625 174.570312 136.640625 C 174.582031 136.632812 174.589844 136.625 174.601562 136.617188 L 206.152344 118.402344 L 200.410156 115.085938 L 168.238281 133.660156 Z M 156.550781 125.480469 L 167.003906 131.515625 L 197.933594 113.65625 L 187.484375 107.625 Z M 187.484375 143.339844 L 218.417969 125.480469 L 208.628906 119.832031 L 177.695312 137.6875 Z M 186.246094 145.484375 L 176.457031 139.832031 L 176.457031 147.769531 C 176.457031 148.210938 176.222656 148.621094 175.839844 148.839844 C 175.648438 148.953125 175.433594 149.007812 175.21875 149.007812 C 175.007812 149.007812 174.792969 148.953125 174.601562 148.839844 L 166.382812 144.097656 C 166 143.875 165.765625 143.464844 165.765625 143.023438 L 165.765625 133.660156 L 155.316406 127.625 L 155.316406 163.34375 L 186.246094 181.203125 Z M 186.246094 145.484375 " fill-opacity="1" fill-rule="nonzero"/></g><g fill="#f9fafb" fill-opacity="1"><g transform="translate(102.354042, 275.570001)"><g><path d="M 12.765625 0.359375 C 10.609375 0.359375 8.691406 -0.0078125 7.015625 -0.75 C 5.335938 -1.488281 4.015625 -2.5 3.046875 -3.78125 C 2.078125 -5.0625 1.53125 -6.492188 1.40625 -8.078125 L 8.875 -8.078125 C 8.96875 -7.222656 9.363281 -6.53125 10.0625 -6 C 10.769531 -5.46875 11.640625 -5.203125 12.671875 -5.203125 C 13.609375 -5.203125 14.332031 -5.382812 14.84375 -5.75 C 15.363281 -6.125 15.625 -6.609375 15.625 -7.203125 C 15.625 -7.898438 15.253906 -8.414062 14.515625 -8.75 C 13.785156 -9.09375 12.597656 -9.472656 10.953125 -9.890625 C 9.179688 -10.304688 7.707031 -10.738281 6.53125 -11.1875 C 5.351562 -11.644531 4.335938 -12.367188 3.484375 -13.359375 C 2.628906 -14.347656 2.203125 -15.679688 2.203125 -17.359375 C 2.203125 -18.765625 2.59375 -20.050781 3.375 -21.21875 C 4.15625 -22.382812 5.300781 -23.304688 6.8125 -23.984375 C 8.332031 -24.660156 10.140625 -25 12.234375 -25 C 15.328125 -25 17.757812 -24.234375 19.53125 -22.703125 C 21.3125 -21.171875 22.335938 -19.140625 22.609375 -16.609375 L 15.625 -16.609375 C 15.507812 -17.460938 15.132812 -18.140625 14.5 -18.640625 C 13.875 -19.140625 13.046875 -19.390625 12.015625 -19.390625 C 11.128906 -19.390625 10.445312 -19.21875 9.96875 -18.875 C 9.5 -18.539062 9.265625 -18.078125 9.265625 -17.484375 C 9.265625 -16.773438 9.640625 -16.242188 10.390625 -15.890625 C 11.148438 -15.535156 12.320312 -15.1875 13.90625 -14.84375 C 15.726562 -14.363281 17.210938 -13.894531 18.359375 -13.4375 C 19.515625 -12.988281 20.523438 -12.253906 21.390625 -11.234375 C 22.265625 -10.222656 22.710938 -8.863281 22.734375 -7.15625 C 22.734375 -5.707031 22.328125 -4.414062 21.515625 -3.28125 C 20.710938 -2.15625 19.550781 -1.265625 18.03125 -0.609375 C 16.519531 0.0351562 14.765625 0.359375 12.765625 0.359375 Z M 12.765625 0.359375 "/></g></g></g><g fill="#f9fafb" fill-opacity="1"><g transform="translate(126.990211, 275.570001)"><g><path d="M 16.46875 -6.40625 L 16.46875 0 L 12.625 0 C 9.882812 0 7.75 -0.664062 6.21875 -2 C 4.695312 -3.34375 3.9375 -5.53125 3.9375 -8.5625 L 3.9375 -18.375 L 0.921875 -18.375 L 0.921875 -24.640625 L 3.9375 -24.640625 L 3.9375 -30.640625 L 11.484375 -30.640625 L 11.484375 -24.640625 L 16.421875 -24.640625 L 16.421875 -18.375 L 11.484375 -18.375 L 11.484375 -8.484375 C 11.484375 -7.742188 11.660156 -7.210938 12.015625 -6.890625 C 12.367188 -6.566406 12.957031 -6.40625 13.78125 -6.40625 Z M 16.46875 -6.40625 "/></g></g></g><g fill="#f9fafb" fill-opacity="1"><g transform="translate(144.915456, 275.570001)"><g><path d="M 13.953125 0.359375 C 11.535156 0.359375 9.363281 -0.15625 7.4375 -1.1875 C 5.507812 -2.21875 3.992188 -3.691406 2.890625 -5.609375 C 1.785156 -7.523438 1.234375 -9.757812 1.234375 -12.3125 C 1.234375 -14.84375 1.789062 -17.070312 2.90625 -19 C 4.03125 -20.9375 5.5625 -22.421875 7.5 -23.453125 C 9.445312 -24.484375 11.628906 -25 14.046875 -25 C 16.453125 -25 18.625 -24.484375 20.5625 -23.453125 C 22.507812 -22.421875 24.039062 -20.9375 25.15625 -19 C 26.28125 -17.070312 26.84375 -14.84375 26.84375 -12.3125 C 26.84375 -9.78125 26.273438 -7.550781 25.140625 -5.625 C 24.015625 -3.695312 22.472656 -2.21875 20.515625 -1.1875 C 18.554688 -0.15625 16.367188 0.359375 13.953125 0.359375 Z M 13.953125 -6.1875 C 15.390625 -6.1875 16.613281 -6.710938 17.625 -7.765625 C 18.644531 -8.828125 19.15625 -10.34375 19.15625 -12.3125 C 19.15625 -14.289062 18.660156 -15.804688 17.671875 -16.859375 C 16.691406 -17.921875 15.484375 -18.453125 14.046875 -18.453125 C 12.566406 -18.453125 11.34375 -17.929688 10.375 -16.890625 C 9.40625 -15.847656 8.921875 -14.320312 8.921875 -12.3125 C 8.921875 -10.34375 9.398438 -8.828125 10.359375 -7.765625 C 11.316406 -6.710938 12.515625 -6.1875 13.953125 -6.1875 Z M 13.953125 -6.1875 "/></g></g></g><g fill="#f9fafb" fill-opacity="1"><g transform="translate(173.039541, 275.570001)"><g><path d="M 1.234375 -12.3125 C 1.234375 -14.875 1.753906 -17.113281 2.796875 -19.03125 C 3.847656 -20.945312 5.304688 -22.421875 7.171875 -23.453125 C 9.046875 -24.484375 11.1875 -25 13.59375 -25 C 16.6875 -25 19.269531 -24.1875 21.34375 -22.5625 C 23.425781 -20.945312 24.789062 -18.664062 25.4375 -15.71875 L 17.390625 -15.71875 C 16.710938 -17.601562 15.40625 -18.546875 13.46875 -18.546875 C 12.082031 -18.546875 10.976562 -18.007812 10.15625 -16.9375 C 9.332031 -15.863281 8.921875 -14.320312 8.921875 -12.3125 C 8.921875 -10.3125 9.332031 -8.773438 10.15625 -7.703125 C 10.976562 -6.628906 12.082031 -6.09375 13.46875 -6.09375 C 15.40625 -6.09375 16.710938 -7.035156 17.390625 -8.921875 L 25.4375 -8.921875 C 24.789062 -6.035156 23.421875 -3.765625 21.328125 -2.109375 C 19.234375 -0.460938 16.65625 0.359375 13.59375 0.359375 C 11.1875 0.359375 9.046875 -0.15625 7.171875 -1.1875 C 5.304688 -2.21875 3.847656 -3.691406 2.796875 -5.609375 C 1.753906 -7.523438 1.234375 -9.757812 1.234375 -12.3125 Z M 1.234375 -12.3125 "/></g></g></g><g fill="#f9fafb" fill-opacity="1"><g transform="translate(199.750791, 275.570001)"><g><path d="M 17.796875 0 L 10.28125 -10.328125 L 10.28125 0 L 2.734375 0 L 2.734375 -32.671875 L 10.28125 -32.671875 L 10.28125 -14.609375 L 17.75 -24.640625 L 27.0625 -24.640625 L 16.828125 -12.28125 L 27.15625 0 Z M 17.796875 0 "/></g></g></g><g fill="#f9fafb" fill-opacity="1"><g transform="translate(227.035995, 275.570001)"><g><path d="M 10.28125 -31 L 10.28125 0 L 2.734375 0 L 2.734375 -31 Z M 10.28125 -31 "/></g></g></g><g fill="#f9fafb" fill-opacity="1"><g transform="translate(240.060489, 275.570001)"><g><path d="M 22.03125 -5.46875 L 10.46875 -5.46875 L 8.609375 0 L 0.703125 0 L 11.921875 -31 L 20.671875 -31 L 31.875 0 L 23.890625 0 Z M 20.09375 -11.296875 L 16.25 -22.65625 L 12.453125 -11.296875 Z M 20.09375 -11.296875 "/></g></g></g><g fill="#f9fafb" fill-opacity="1"><g transform="translate(101.829875, 301.922926)"><g><path d="M 8.390625 -11.5625 L 8.390625 -10.328125 L 5.234375 -10.328125 L 5.234375 0 L 3.734375 0 L 3.734375 -10.328125 L 0.5625 -10.328125 L 0.5625 -11.5625 Z M 8.390625 -11.5625 "/></g></g></g><g fill="#f9fafb" fill-opacity="1"><g transform="translate(115.157869, 301.922926)"><g><path d="M 2.75 -11.5625 L 2.75 -4.25 C 2.75 -3.21875 3 -2.453125 3.5 -1.953125 C 4.007812 -1.453125 4.710938 -1.203125 5.609375 -1.203125 C 6.484375 -1.203125 7.171875 -1.453125 7.671875 -1.953125 C 8.179688 -2.453125 8.4375 -3.21875 8.4375 -4.25 L 8.4375 -11.5625 L 9.953125 -11.5625 L 9.953125 -4.265625 C 9.953125 -3.296875 9.753906 -2.484375 9.359375 -1.828125 C 8.972656 -1.171875 8.453125 -0.679688 7.796875 -0.359375 C 7.140625 -0.046875 6.40625 0.109375 5.59375 0.109375 C 4.769531 0.109375 4.03125 -0.046875 3.375 -0.359375 C 2.71875 -0.679688 2.195312 -1.171875 1.8125 -1.828125 C 1.4375 -2.484375 1.25 -3.296875 1.25 -4.265625 L 1.25 -11.5625 Z M 2.75 -11.5625 "/></g></g></g><g fill="#f9fafb" fill-opacity="1"><g transform="translate(130.707076, 301.922926)"><g/></g></g><g fill="#f9fafb" fill-opacity="1"><g transform="translate(139.493188, 301.922926)"><g><path d="M 2.78125 -11.5625 L 2.78125 0 L 1.28125 0 L 1.28125 -11.5625 Z M 2.78125 -11.5625 "/></g></g></g><g fill="#f9fafb" fill-opacity="1"><g transform="translate(147.931206, 301.922926)"><g><path d="M 10.359375 0 L 8.859375 0 L 2.78125 -9.203125 L 2.78125 0 L 1.28125 0 L 1.28125 -11.578125 L 2.78125 -11.578125 L 8.859375 -2.390625 L 8.859375 -11.578125 L 10.359375 -11.578125 Z M 10.359375 0 "/></g></g></g><g fill="#f9fafb" fill-opacity="1"><g transform="translate(163.944544, 301.922926)"><g><path d="M 10.828125 -11.5625 L 6.46875 0 L 4.71875 0 L 0.359375 -11.5625 L 1.96875 -11.5625 L 5.609375 -1.59375 L 9.234375 -11.5625 Z M 10.828125 -11.5625 "/></g></g></g><g fill="#f9fafb" fill-opacity="1"><g transform="translate(179.51033, 301.922926)"><g><path d="M 2.78125 -10.328125 L 2.78125 -6.46875 L 7 -6.46875 L 7 -5.21875 L 2.78125 -5.21875 L 2.78125 -1.25 L 7.5 -1.25 L 7.5 0 L 1.28125 0 L 1.28125 -11.578125 L 7.5 -11.578125 L 7.5 -10.328125 Z M 2.78125 -10.328125 "/></g></g></g><g fill="#f9fafb" fill-opacity="1"><g transform="translate(192.374198, 301.922926)"><g><path d="M 10.359375 0 L 8.859375 0 L 2.78125 -9.203125 L 2.78125 0 L 1.28125 0 L 1.28125 -11.578125 L 2.78125 -11.578125 L 8.859375 -2.390625 L 8.859375 -11.578125 L 10.359375 -11.578125 Z M 10.359375 0 "/></g></g></g><g fill="#f9fafb" fill-opacity="1"><g transform="translate(208.387531, 301.922926)"><g><path d="M 8.390625 -11.5625 L 8.390625 -10.328125 L 5.234375 -10.328125 L 5.234375 0 L 3.734375 0 L 3.734375 -10.328125 L 0.5625 -10.328125 L 0.5625 -11.5625 Z M 8.390625 -11.5625 "/></g></g></g><g fill="#f9fafb" fill-opacity="1"><g transform="translate(221.715522, 301.922926)"><g><path d="M 8.109375 -2.5625 L 3.0625 -2.5625 L 2.140625 0 L 0.546875 0 L 4.71875 -11.484375 L 6.46875 -11.484375 L 10.625 0 L 9.03125 0 Z M 7.671875 -3.796875 L 5.59375 -9.625 L 3.5 -3.796875 Z M 7.671875 -3.796875 "/></g></g></g><g fill="#f9fafb" fill-opacity="1"><g transform="translate(237.248145, 301.922926)"><g><path d="M 7.359375 0 L 4.609375 -4.71875 L 2.78125 -4.71875 L 2.78125 0 L 1.28125 0 L 1.28125 -11.5625 L 5 -11.5625 C 5.875 -11.5625 6.613281 -11.410156 7.21875 -11.109375 C 7.820312 -10.804688 8.269531 -10.398438 8.5625 -9.890625 C 8.863281 -9.390625 9.015625 -8.8125 9.015625 -8.15625 C 9.015625 -7.363281 8.785156 -6.660156 8.328125 -6.046875 C 7.867188 -5.441406 7.179688 -5.039062 6.265625 -4.84375 L 9.171875 0 Z M 2.78125 -5.9375 L 5 -5.9375 C 5.820312 -5.9375 6.4375 -6.132812 6.84375 -6.53125 C 7.25 -6.9375 7.453125 -7.476562 7.453125 -8.15625 C 7.453125 -8.84375 7.25 -9.375 6.84375 -9.75 C 6.445312 -10.125 5.832031 -10.3125 5 -10.3125 L 2.78125 -10.3125 Z M 2.78125 -5.9375 "/></g></g></g><g fill="#f9fafb" fill-opacity="1"><g transform="translate(251.68675, 301.922926)"><g><path d="M 2.78125 -11.5625 L 2.78125 0 L 1.28125 0 L 1.28125 -11.5625 Z M 2.78125 -11.5625 "/></g></g></g><g fill="#f9fafb" fill-opacity="1"><g transform="translate(260.124764, 301.922926)"><g><path d="M 6.515625 0.109375 C 5.441406 0.109375 4.460938 -0.140625 3.578125 -0.640625 C 2.691406 -1.140625 1.992188 -1.835938 1.484375 -2.734375 C 0.972656 -3.640625 0.71875 -4.65625 0.71875 -5.78125 C 0.71875 -6.914062 0.972656 -7.929688 1.484375 -8.828125 C 1.992188 -9.722656 2.691406 -10.421875 3.578125 -10.921875 C 4.460938 -11.429688 5.441406 -11.6875 6.515625 -11.6875 C 7.597656 -11.6875 8.582031 -11.429688 9.46875 -10.921875 C 10.351562 -10.421875 11.046875 -9.722656 11.546875 -8.828125 C 12.054688 -7.941406 12.3125 -6.925781 12.3125 -5.78125 C 12.3125 -4.644531 12.054688 -3.628906 11.546875 -2.734375 C 11.046875 -1.835938 10.351562 -1.140625 9.46875 -0.640625 C 8.582031 -0.140625 7.597656 0.109375 6.515625 0.109375 Z M 6.515625 -1.1875 C 7.316406 -1.1875 8.039062 -1.375 8.6875 -1.75 C 9.34375 -2.132812 9.851562 -2.671875 10.21875 -3.359375 C 10.59375 -4.054688 10.78125 -4.863281 10.78125 -5.78125 C 10.78125 -6.707031 10.59375 -7.515625 10.21875 -8.203125 C 9.851562 -8.898438 9.347656 -9.4375 8.703125 -9.8125 C 8.054688 -10.1875 7.328125 -10.375 6.515625 -10.375 C 5.691406 -10.375 4.957031 -10.1875 4.3125 -9.8125 C 3.675781 -9.4375 3.171875 -8.898438 2.796875 -8.203125 C 2.429688 -7.515625 2.25 -6.707031 2.25 -5.78125 C 2.25 -4.863281 2.429688 -4.054688 2.796875 -3.359375 C 3.171875 -2.671875 3.679688 -2.132812 4.328125 -1.75 C 4.984375 -1.375 5.710938 -1.1875 6.515625 -1.1875 Z M 6.515625 -1.1875 "/></g></g></g></svg>